0
SECTION
2
HEADER
9
$INSUNITS
70
4
9
$ACADVER
1
AC1014
9
$HANDSEED
5
FFFF
0
ENDSEC
0
SECTION
2
TABLES
0
TABLE
2
VPORT
5
8
100
AcDbSymbolTable
0
ENDTAB
0
TABLE
2
LTYPE
5
5
100
AcDbSymbolTable
0
LTYPE
5
14
100
AcDbSymbolTableRecord
100
AcDbLinetypeTableRecord
2
BYBLOCK
70
0
0
LTYPE
5
15
100
AcDbSymbolTableRecord
100
AcDbLinetypeTableRecord
2
BYLAYER
70
0
0
ENDTAB
0
TABLE
2
LAYER
5
2
100
AcDbSymbolTable
70
2
0
LAYER
5
50
100
AcDbSymbolTableRecord
100
AcDbLayerTableRecord
2
0
70
0
6
CONTINUOUS
0
ENDTAB
0
TABLE
2
STYLE
5
3
100
AcDbSymbolTable
70
1
0
STYLE
5
11
100
AcDbSymbolTableRecord
100
AcDbTextStyleTableRecord
2
STANDARD
70
0
0
ENDTAB
0
TABLE
2
VIEW
5
6
100
AcDbSymbolTable
70
0
0
ENDTAB
0
TABLE
2
UCS
5
7
100
AcDbSymbolTable
70
0
0
ENDTAB
0
TABLE
2
APPID
5
9
100
AcDbSymbolTable
70
2
0
APPID
5
12
100
AcDbSymbolTableRecord
100
AcDbRegAppTableRecord
2
ACAD
70
0
0
ENDTAB
0
TABLE
2
DIMSTYLE
5
A
100
AcDbSymbolTable
70
1
0
ENDTAB
0
TABLE
2
BLOCK_RECORD
5
1
100
AcDbSymbolTable
70
1
0
BLOCK_RECORD
5
1F
100
AcDbSymbolTableRecord
100
AcDbBlockTableRecord
2
*MODEL_SPACE
0
BLOCK_RECORD
5
1B
100
AcDbSymbolTableRecord
100
AcDbBlockTableRecord
2
*PAPER_SPACE
0
ENDTAB
0
ENDSEC
0
SECTION
2
BLOCKS
0
BLOCK
5
20
100
AcDbEntity
100
AcDbBlockBegin
2
*MODEL_SPACE
0
ENDBLK
5
21
100
AcDbEntity
100
AcDbBlockEnd
0
BLOCK
5
1C
100
AcDbEntity
100
AcDbBlockBegin
2
*PAPER_SPACE
0
ENDBLK
5
1D
100
AcDbEntity
100
AcDbBlockEnd
0
ENDSEC
0
SECTION
2
ENTITIES
0
LWPOLYLINE
5
100
100
AcDbEntity
8
0
100
AcDbPolyline
90
4
70
1
43
0.0
10
237.05480044760878
20
44.627746693016348
10
223.26749190542998
20
42.196672205724397
10
225.69856639272203
20
28.409363663545601
10
239.48587493490081
20
30.840438150837613
0
LWPOLYLINE
5
101
100
AcDbEntity
8
0
100
AcDbPolyline
90
4
70
1
43
0.0
10
242.1524873903364
20
44.511179828322163
10
255.9397959325151
20
46.942254315614171
10
253.5087214452231
20
60.729562857792949
10
239.72141290304438
20
58.298488370500962
0
LWPOLYLINE
5
102
100
AcDbEntity
8
0
100
AcDbPolyline
90
4
70
1
43
0.0
10
288.34547171332179
20
127.11390519927433
10
290.77654620061401
20
113.32659665709549
10
304.56385474279284
20
115.75767114438749
10
302.13278025550085
20
129.54497968656631
0
LWPOLYLINE
5
103
100
AcDbEntity
8
0
100
AcDbPolyline
90
4
70
1
43
0.0
10
112.63480041765229
20
111.33388870501469
10
110.20372593027035
20
97.546580162851853
10
123.99103447243314
20
95.115505675469819
10
126.42210895981519
20
108.9028142176327
0
LWPOLYLINE
5
104
100
AcDbEntity
8
0
100
AcDbPolyline
90
4
70
1
43
0.0
10
315.96067682508232
20
120.22832706545091
10
329.74798536726109
20
122.65940155274286
10
327.31691087996921
20
136.44671009492174
10
313.5296023377901
20
134.01563560762969
0
LWPOLYLINE
5
105
100
AcDbEntity
8
0
100
AcDbPolyline
90
4
70
1
43
0.0
10
248.7630201295805
20
115.48755343307148
10
246.33194564228856
20
129.27486197525022
10
232.54463710010967
20
126.84378748795831
10
234.97571158740172
20
113.05647894577947
0
LWPOLYLINE
5
106
100
AcDbEntity
8
0
100
AcDbPolyline
90
4
70
1
43
0.0
10
31.649835180019235
20
118.50573682521494
10
29.218760692637289
20
104.71842828305212
10
43.006069234800101
20
102.28735379567007
10
45.437143722182107
20
116.07466233783293
0
LWPOLYLINE
5
107
100
AcDbEntity
8
0
100
AcDbPolyline
90
4
70
1
43
0.0
10
251.96226192606375
20
97.343751595768282
10
249.53118743877172
20
111.13106013794712
10
235.74387889659292
20
108.69998565065514
10
238.17495338388488
20
94.912677108476288
0
LWPOLYLINE
5
108
100
AcDbEntity
8
0
100
AcDbPolyline
90
4
70
1
43
0.0
10
223.03195393728646
20
14.738621986061025
10
220.60087944999438
20
28.525930528239844
10
206.81357090781572
20
26.094856040947839
10
209.24464539510768
20
12.307547498769058
0
LWPOLYLINE
5
109
100
AcDbEntity
8
0
100
AcDbPolyline
90
4
70
1
43
0.0
10
275.48348537243123
20
113.67629725117814
10
273.0524108851393
20
127.463605793357
10
259.2651023429604
20
125.03253130606493
10
261.6961768302524
20
111.24522276388615
0
LWPOLYLINE
5
110
100
AcDbEntity
8
0
100
AcDbPolyline
90
4
70
1
43
0.0
10
272.28424357594793
20
131.8200990884813
10
269.85316908865593
20
145.60740763066013
10
256.06586054647727
20
143.17633314336814
10
258.4969350337692
20
129.38902460118931
0
LWPOLYLINE
5
111
100
AcDbEntity
8
0
100
AcDbPolyline
90
4
70
1
43
0.0
10
136.40641103789105
20
14.946885025529397
10
138.83748552527305
20
28.734193567692252
10
152.62479406743586
20
26.303119080310211
10
150.19371958005385
20
12.51581053814739
0
LWPOLYLINE
5
112
100
AcDbEntity
8
0
100
AcDbPolyline
90
4
70
1
43
0.0
10
100.46981102617252
20
111.44805133103317
10
86.682502484009689
20
113.87912581841518
10
89.113576971391723
20
127.66643436057804
10
102.90088551355454
20
125.23535987319596
0
LWPOLYLINE
5
113
100
AcDbEntity
8
0
100
AcDbPolyline
90
4
70
1
43
0.0
10
285.14622991683882
20
145.2577070365775
10
298.93353845901748
20
147.68878152386947
10
301.36461294630942
20
133.90147298169072
10
287.57730440413064
20
131.47039849439869
0
LWPOLYLINE
5
114
100
AcDbEntity
8
0
100
AcDbPolyline
90
4
70
1
43
0.0
10
133.73979858254475
20
28.617626703031291
10
136.17087306992681
20
42.40493524519411
10
122.38356452776395
20
44.836009732576152
10
119.95249004038193
20
31.048701190413325
0
LWPOLYLINE
5
115
100
AcDbEntity
8
0
100
AcDbPolyline
90
4
70
1
43
0.0
10
204.72979277585111
20
37.91254907710104
10
218.51710131802997
20
40.343623564393027
10
216.08602683073784
20
54.130932106571805
10
202.29871828855917
20
51.699857619279818
0
LWPOLYLINE
5
116
100
AcDbEntity
8
0
100
AcDbPolyline
90
4
70
1
43
0.0
10
221.18371377346548
20
54.01436524187762
10
234.97102231564438
20
56.445439729169628
10
232.53994782835221
20
70.232748271348413
10
218.75263928617346
20
67.801673784056405
0
LWPOLYLINE
5
117
100
AcDbEntity
8
0
100
AcDbPolyline
90
4
70
1
43
0.0
10
73.820516143206817
20
127.31673376659532
10
60.033207601044019
20
129.74780825397727
10
57.602133113661949
20
115.96049971181446
10
71.389441655824783
20
113.52942522443244
0
LWPOLYLINE
5
118
100
AcDbEntity
8
0
100
AcDbPolyline
90
4
70
1
43
0.0
10
172.99998100307531
20
93.999999999999986
10
187.00001899692469
20
93.999999999999986
10
187.00001899692469
20
108
10
172.99998100307531
20
108
0
LWPOLYLINE
5
119
100
AcDbEntity
8
0
100
AcDbPolyline
90
4
70
1
43
0.0
10
332.9472271637444
20
104.51559971543972
10
330.51615267645218
20
118.3029082576185
10
316.72884413427352
20
115.87183377032657
10
319.15991862156551
20
102.08452522814773
0
LWPOLYLINE
5
120
100
AcDbEntity
8
0
100
AcDbPolyline
90
8
70
1
43
0.0
10
-6.6613381477509392e-15
20
155
10
5.5511151231257827e-16
20
5
42
0.4142135623730957
10
5
20
5.5511151231257827e-16
10
355
20
-1.1102230246251565e-15
42
0.41421356237310342
10
360
20
5
10
360
20
155
42
0.41421356237310442
10
355
20
159.99999999999997
10
5
20
160
42
0.41421356237309176
0
CIRCLE
5
121
100
AcDbEntity
8
0
100
AcDbCircle
10
235.04075000000003
20
146.24999999999994
30
1.6703206661723021e-09
40
2.6000000000000001
210
0
220
0
230
1
0
CIRCLE
5
122
100
AcDbEntity
8
0
100
AcDbCircle
10
235.041
20
13.750000000000027
30
1.6703206661723021e-09
40
2.6000000000000001
210
0
220
0
230
1
0
CIRCLE
5
123
100
AcDbEntity
8
0
100
AcDbCircle
10
124.95925
20
146.25
30
1.6703206661723021e-09
40
2.6000000000000001
210
0
220
0
230
1
0
CIRCLE
5
124
100
AcDbEntity
8
0
100
AcDbCircle
10
13.749999999999993
20
146.25
30
1.6703206661723021e-09
40
2.6000000000000001
210
0
220
0
230
1
0
CIRCLE
5
125
100
AcDbEntity
8
0
100
AcDbCircle
10
13.749999999999993
20
80
30
1.6703206661723021e-09
40
2.6000000000000001
210
0
220
0
230
1
0
CIRCLE
5
126
100
AcDbEntity
8
0
100
AcDbCircle
10
346.25
20
79.999999999999929
30
1.6703206661723021e-09
40
2.6000000000000001
210
0
220
0
230
1
0
CIRCLE
5
127
100
AcDbEntity
8
0
100
AcDbCircle
10
346.25
20
13.750000000000027
30
1.6703206661723021e-09
40
2.6000000000000001
210
0
220
0
230
1
0
CIRCLE
5
128
100
AcDbEntity
8
0
100
AcDbCircle
10
13.75
20
13.750000000000002
30
1.6703206661723021e-09
40
2.6000000000000001
210
0
220
0
230
1
0
CIRCLE
5
129
100
AcDbEntity
8
0
100
AcDbCircle
10
346.25
20
146.24999999999994
30
1.6703206661723021e-09
40
2.6000000000000001
210
0
220
0
230
1
0
CIRCLE
5
130
100
AcDbEntity
8
0
100
AcDbCircle
10
124.959
20
13.750000000000002
30
1.6703206661723021e-09
40
2.6000000000000001
210
0
220
0
230
1
0
ENDSEC
0
SECTION
2
OBJECTS
0
DICTIONARY
5
C
100
AcDbDictionary
3
ACAD_GROUP
350
D
3
ACAD_MLINESTYLE
350
17
0
DICTIONARY
5
D
100
AcDbDictionary
0
DICTIONARY
5
1A
330
C
100
AcDbDictionary
0
DICTIONARY
5
17
100
AcDbDictionary
0
ENDSEC
0
EOF
