0
SECTION
2
HEADER
9
$INSUNITS
70
4
9
$ACADVER
1
AC1014
9
$HANDSEED
5
FFFF
0
ENDSEC
0
SECTION
2
TABLES
0
TABLE
2
VPORT
5
8
100
AcDbSymbolTable
0
ENDTAB
0
TABLE
2
LTYPE
5
5
100
AcDbSymbolTable
0
LTYPE
5
14
100
AcDbSymbolTableRecord
100
AcDbLinetypeTableRecord
2
BYBLOCK
70
0
0
LTYPE
5
15
100
AcDbSymbolTableRecord
100
AcDbLinetypeTableRecord
2
BYLAYER
70
0
0
ENDTAB
0
TABLE
2
LAYER
5
2
100
AcDbSymbolTable
70
2
0
LAYER
5
50
100
AcDbSymbolTableRecord
100
AcDbLayerTableRecord
2
0
70
0
6
CONTINUOUS
0
ENDTAB
0
TABLE
2
STYLE
5
3
100
AcDbSymbolTable
70
1
0
STYLE
5
11
100
AcDbSymbolTableRecord
100
AcDbTextStyleTableRecord
2
STANDARD
70
0
0
ENDTAB
0
TABLE
2
VIEW
5
6
100
AcDbSymbolTable
70
0
0
ENDTAB
0
TABLE
2
UCS
5
7
100
AcDbSymbolTable
70
0
0
ENDTAB
0
TABLE
2
APPID
5
9
100
AcDbSymbolTable
70
2
0
APPID
5
12
100
AcDbSymbolTableRecord
100
AcDbRegAppTableRecord
2
ACAD
70
0
0
ENDTAB
0
TABLE
2
DIMSTYLE
5
A
100
AcDbSymbolTable
70
1
0
ENDTAB
0
TABLE
2
BLOCK_RECORD
5
1
100
AcDbSymbolTable
70
1
0
BLOCK_RECORD
5
1F
100
AcDbSymbolTableRecord
100
AcDbBlockTableRecord
2
*MODEL_SPACE
0
BLOCK_RECORD
5
1B
100
AcDbSymbolTableRecord
100
AcDbBlockTableRecord
2
*PAPER_SPACE
0
ENDTAB
0
ENDSEC
0
SECTION
2
BLOCKS
0
BLOCK
5
20
100
AcDbEntity
100
AcDbBlockBegin
2
*MODEL_SPACE
0
ENDBLK
5
21
100
AcDbEntity
100
AcDbBlockEnd
0
BLOCK
5
1C
100
AcDbEntity
100
AcDbBlockBegin
2
*PAPER_SPACE
0
ENDBLK
5
1D
100
AcDbEntity
100
AcDbBlockEnd
0
ENDSEC
0
SECTION
2
ENTITIES
0
CIRCLE
5
100
100
AcDbEntity
8
0
100
AcDbCircle
10
13.749999999999993
20
80
30
1.6703206661723021e-09
40
2.6000000000000001
210
0
220
0
230
1
0
CIRCLE
5
101
100
AcDbEntity
8
0
100
AcDbCircle
10
124.95925
20
146.25
30
1.6703206661723021e-09
40
2.6000000000000001
210
0
220
0
230
1
0
CIRCLE
5
102
100
AcDbEntity
8
0
100
AcDbCircle
10
235.041
20
13.750000000000027
30
1.6703206661723021e-09
40
2.6000000000000001
210
0
220
0
230
1
0
CIRCLE
5
103
100
AcDbEntity
8
0
100
AcDbCircle
10
124.959
20
13.750000000000002
30
1.6703206661723021e-09
40
2.6000000000000001
210
0
220
0
230
1
0
CIRCLE
5
104
100
AcDbEntity
8
0
100
AcDbCircle
10
346.25
20
146.24999999999994
30
1.6703206661723021e-09
40
2.6000000000000001
210
0
220
0
230
1
0
CIRCLE
5
105
100
AcDbEntity
8
0
100
AcDbCircle
10
235.04075000000003
20
146.24999999999994
30
1.6703206661723021e-09
40
2.6000000000000001
210
0
220
0
230
1
0
CIRCLE
5
106
100
AcDbEntity
8
0
100
AcDbCircle
10
13.75
20
13.750000000000002
30
1.6703206661723021e-09
40
2.6000000000000001
210
0
220
0
230
1
0
CIRCLE
5
107
100
AcDbEntity
8
0
100
AcDbCircle
10
13.749999999999993
20
146.25
30
1.6703206661723021e-09
40
2.6000000000000001
210
0
220
0
230
1
0
CIRCLE
5
108
100
AcDbEntity
8
0
100
AcDbCircle
10
346.25
20
13.750000000000027
30
1.6703206661723021e-09
40
2.6000000000000001
210
0
220
0
230
1
0
CIRCLE
5
109
100
AcDbEntity
8
0
100
AcDbCircle
10
346.25
20
79.999999999999929
30
1.6703206661723021e-09
40
2.6000000000000001
210
0
220
0
230
1
0
LWPOLYLINE
5
110
100
AcDbEntity
8
0
100
AcDbPolyline
90
4
70
1
43
0.0
10
48.912511514227461
20
118.50814106385742
10
45.439547960824584
20
98.811986003624696
10
25.743392900591946
20
102.28494955702766
10
29.216356453994734
20
121.9811046172603
0
LWPOLYLINE
5
111
100
AcDbEntity
8
0
100
AcDbPolyline
90
4
70
1
43
0.0
10
77.295883935252178
20
129.7502124926198
10
73.822920381849272
20
110.05405743238705
10
54.126765321616553
20
113.52702098579
10
57.599728875019558
20
133.22317604602264
0
LWPOLYLINE
5
112
100
AcDbEntity
8
0
100
AcDbPolyline
90
4
70
1
43
0.0
10
102.903289752197
20
107.97268353898781
10
106.37625330559993
20
127.66883859922044
10
86.680098245367219
20
131.14180215262343
10
83.207134691964356
20
111.4456470923907
0
LWPOLYLINE
5
113
100
AcDbEntity
8
0
100
AcDbPolyline
90
4
70
1
43
0.0
10
129.89747675186058
20
111.33629294365718
10
126.42451319845762
20
91.640137883424444
10
106.72835813822503
20
95.113101436827364
10
110.20132169162778
20
114.80925649706006
0
LWPOLYLINE
5
114
100
AcDbEntity
8
0
100
AcDbPolyline
90
4
70
1
43
0.0
10
169.99998100307528
20
90.999999999999972
10
169.99998100307528
20
111.00000000000001
10
190.00001899692472
20
111.00000000000001
10
190.00001899692472
20
90.999999999999972
0
LWPOLYLINE
5
115
100
AcDbEntity
8
0
100
AcDbPolyline
90
8
70
1
43
0.0
10
119.95008580173946
20
48.311377524621513
10
139.64624086197216
20
44.838413971218586
10
137.38881455226027
20
32.035913182067461
10
156.10016185948123
20
28.7365978063347
10
152.62719830607836
20
9.040442746102034
10
132.9310432458457
20
12.513406299504908
10
135.18846955555759
20
25.31590708865609
10
116.47712224833657
20
28.615222464388843
0
LWPOLYLINE
5
116
100
AcDbEntity
8
0
100
AcDbPolyline
90
16
70
1
43
0.0
10
206.8111666690605
20
8.8321797067395948
10
203.33820311578631
20
28.52833476699502
10
222.04955042302885
20
31.827650142605609
10
221.00766135704657
20
37.7364966606821
10
202.29631404980395
20
34.437181285071581
10
198.82335049652977
20
54.13333634532701
10
217.5346978037723
20
57.432651720937571
10
215.27727149414397
20
70.235152510103589
10
234.97342655439934
20
73.708116063377872
10
237.23085286402781
20
60.905615274211883
10
255.94220017127026
20
64.204930649822415
10
259.41516372454458
20
44.508775589567009
10
240.70381641730197
20
41.20946021395639
10
242.96124272693027
20
28.406959424790426
10
224.24989541968759
20
25.107644049179836
10
226.50732172931595
20
12.30514326001385
0
LINE
5
117
100
AcDbEntity
8
0
100
AcDbLine
10
255.43762971809321
20
94.910272869721098
30
0
11
251.96466616481885
21
114.60642792997659
31
0
0
LINE
5
118
100
AcDbEntity
8
0
100
AcDbLine
10
232.2685111045634
20
111.13346437670234
30
0
11
235.74147465783773
21
91.437309316446814
31
0
0
LWPOLYLINE
5
119
100
AcDbEntity
8
0
100
AcDbPolyline
90
4
70
1
43
0.0
10
255.43762971809321
20
94.910272869721098
10
235.74147465783773
20
91.437309316446814
10
229.06926930808021
20
129.27726621400555
10
248.76542436833577
20
132.75022976727968
0
LINE
5
120
100
AcDbEntity
8
0
100
AcDbLine
10
252.23838792160993
20
113.05407470702431
30
0
11
248.76542436833577
21
132.75022976727968
31
0
0
LINE
5
121
100
AcDbEntity
8
0
100
AcDbLine
10
229.06926930808021
20
129.27726621400555
30
0
11
232.54223286135456
21
109.58111115375002
31
0
0
LINE
5
122
100
AcDbEntity
8
0
100
AcDbLine
10
275.75961136797736
20
129.38662036243412
30
0
11
272.2866478147032
21
149.08277542268965
31
0
0
LINE
5
123
100
AcDbEntity
8
0
100
AcDbLine
10
272.2866478147032
20
149.08277542268965
30
0
11
252.59049275444784
21
145.60981186941535
31
0
0
LINE
5
124
100
AcDbEntity
8
0
100
AcDbLine
10
252.59049275444784
20
145.60981186941535
30
0
11
256.06345630772205
21
125.91365680915985
31
0
0
LINE
5
125
100
AcDbEntity
8
0
100
AcDbLine
10
278.95885316446072
20
111.24281852513094
30
0
11
275.48588961118651
21
130.93897358538649
31
0
0
LINE
5
126
100
AcDbEntity
8
0
100
AcDbLine
10
255.78973455093097
20
127.46601003211211
30
0
11
259.26269810420524
21
107.76985497185672
31
0
0
LINE
5
127
100
AcDbEntity
8
0
100
AcDbLine
10
259.26269810420524
20
107.76985497185672
30
0
11
278.95885316446072
21
111.24281852513094
31
0
0
LINE
5
128
100
AcDbEntity
8
0
100
AcDbLine
10
308.03922253482233
20
113.3241924183403
30
0
11
304.566258981548
21
133.02034747859577
31
0
0
LINE
5
129
100
AcDbEntity
8
0
100
AcDbLine
10
284.8701039212923
20
129.54738392532153
30
0
11
288.34306747456691
21
109.85122886506602
31
0
0
LINE
5
130
100
AcDbEntity
8
0
100
AcDbLine
10
288.34306747456691
20
109.85122886506602
30
0
11
308.03922253482233
21
113.3241924183403
31
0
0
LINE
5
131
100
AcDbEntity
8
0
100
AcDbLine
10
301.3670171850647
20
151.16414931589895
30
0
11
304.83998073833891
21
131.46799425564353
31
0
0
LINE
5
132
100
AcDbEntity
8
0
100
AcDbLine
10
285.14382567808349
20
127.99503070236922
30
0
11
281.67086212480939
21
147.69118576262468
31
0
0
LINE
5
133
100
AcDbEntity
8
0
100
AcDbLine
10
281.67086212480939
20
147.69118576262468
30
0
11
301.3670171850647
21
151.16414931589895
31
0
0
LINE
5
134
100
AcDbEntity
8
0
100
AcDbLine
10
310.05423454576061
20
136.44911433367687
30
0
11
313.52719809903522
21
116.75295927342147
31
0
0
LINE
5
135
100
AcDbEntity
8
0
100
AcDbLine
10
333.22335315929053
20
120.22592282669567
30
0
11
329.75038960601637
21
139.92207788695123
31
0
0
LINE
5
136
100
AcDbEntity
8
0
100
AcDbLine
10
329.75038960601637
20
139.92207788695123
30
0
11
310.05423454576061
21
136.44911433367687
31
0
0
LINE
5
137
100
AcDbEntity
8
0
100
AcDbLine
10
313.25347634224408
20
118.30531249637376
30
0
11
316.72643989551835
21
98.609157436118252
31
0
0
LINE
5
138
100
AcDbEntity
8
0
100
AcDbLine
10
316.72643989551835
20
98.609157436118252
30
0
11
336.422594955774
21
102.08212098939255
31
0
0
LINE
5
139
100
AcDbEntity
8
0
100
AcDbLine
10
336.422594955774
20
102.08212098939255
30
0
11
332.94963140249934
21
121.77827604964796
31
0
0
LWPOLYLINE
5
140
100
AcDbEntity
8
0
100
AcDbPolyline
90
8
70
1
43
0.0
10
355
20
0
10
5
20
5.5511151231257827e-16
42
-0.41421356237309559
10
0
20
5
10
-6.6613381477509392e-15
20
155
42
-0.41421356237309331
10
5
20
160
10
355
20
159.99999999999997
42
-0.41421356237310125
10
360
20
155
10
360
20
4.9999999999999991
42
-0.41421356237310203
0
ENDSEC
0
SECTION
2
OBJECTS
0
DICTIONARY
5
C
100
AcDbDictionary
3
ACAD_GROUP
350
D
3
ACAD_MLINESTYLE
350
17
0
DICTIONARY
5
D
100
AcDbDictionary
0
DICTIONARY
5
1A
330
C
100
AcDbDictionary
0
DICTIONARY
5
17
100
AcDbDictionary
0
ENDSEC
0
EOF
