0
SECTION
2
HEADER
9
$INSUNITS
70
4
9
$ACADVER
1
AC1014
9
$HANDSEED
5
FFFF
0
ENDSEC
0
SECTION
2
TABLES
0
TABLE
2
VPORT
5
8
100
AcDbSymbolTable
0
ENDTAB
0
TABLE
2
LTYPE
5
5
100
AcDbSymbolTable
0
LTYPE
5
14
100
AcDbSymbolTableRecord
100
AcDbLinetypeTableRecord
2
BYBLOCK
70
0
0
LTYPE
5
15
100
AcDbSymbolTableRecord
100
AcDbLinetypeTableRecord
2
BYLAYER
70
0
0
ENDTAB
0
TABLE
2
LAYER
5
2
100
AcDbSymbolTable
70
2
0
LAYER
5
50
100
AcDbSymbolTableRecord
100
AcDbLayerTableRecord
2
0
70
0
6
CONTINUOUS
0
ENDTAB
0
TABLE
2
STYLE
5
3
100
AcDbSymbolTable
70
1
0
STYLE
5
11
100
AcDbSymbolTableRecord
100
AcDbTextStyleTableRecord
2
STANDARD
70
0
0
ENDTAB
0
TABLE
2
VIEW
5
6
100
AcDbSymbolTable
70
0
0
ENDTAB
0
TABLE
2
UCS
5
7
100
AcDbSymbolTable
70
0
0
ENDTAB
0
TABLE
2
APPID
5
9
100
AcDbSymbolTable
70
2
0
APPID
5
12
100
AcDbSymbolTableRecord
100
AcDbRegAppTableRecord
2
ACAD
70
0
0
ENDTAB
0
TABLE
2
DIMSTYLE
5
A
100
AcDbSymbolTable
70
1
0
ENDTAB
0
TABLE
2
BLOCK_RECORD
5
1
100
AcDbSymbolTable
70
1
0
BLOCK_RECORD
5
1F
100
AcDbSymbolTableRecord
100
AcDbBlockTableRecord
2
*MODEL_SPACE
0
BLOCK_RECORD
5
1B
100
AcDbSymbolTableRecord
100
AcDbBlockTableRecord
2
*PAPER_SPACE
0
ENDTAB
0
ENDSEC
0
SECTION
2
BLOCKS
0
BLOCK
5
20
100
AcDbEntity
100
AcDbBlockBegin
2
*MODEL_SPACE
0
ENDBLK
5
21
100
AcDbEntity
100
AcDbBlockEnd
0
BLOCK
5
1C
100
AcDbEntity
100
AcDbBlockBegin
2
*PAPER_SPACE
0
ENDBLK
5
1D
100
AcDbEntity
100
AcDbBlockEnd
0
ENDSEC
0
SECTION
2
ENTITIES
0
LWPOLYLINE
5
100
100
AcDbEntity
8
0
100
AcDbPolyline
90
4
70
1
43
0.0
10
229.05480044760878
20
44.627746693016348
10
215.26749190542998
20
42.196672205724397
10
217.69856639272203
20
28.409363663545601
10
231.48587493490081
20
30.840438150837613
0
LWPOLYLINE
5
101
100
AcDbEntity
8
0
100
AcDbPolyline
90
4
70
1
43
0.0
10
234.1524873903364
20
44.511179828322163
10
247.9397959325151
20
46.942254315614171
10
245.5087214452231
20
60.729562857792949
10
231.72141290304438
20
58.298488370500962
0
LWPOLYLINE
5
102
100
AcDbEntity
8
0
100
AcDbPolyline
90
4
70
1
43
0.0
10
280.34547171332179
20
127.11390519927433
10
282.77654620061401
20
113.32659665709549
10
296.56385474279284
20
115.75767114438749
10
294.13278025550079
20
129.54497968656631
0
LWPOLYLINE
5
103
100
AcDbEntity
8
0
100
AcDbPolyline
90
4
70
1
43
0.0
10
119.6348004176523
20
111.33388870501469
10
117.20372593027037
20
97.546580162851853
10
130.99103447243317
20
95.115505675469819
10
133.4221089598152
20
108.9028142176327
0
LWPOLYLINE
5
104
100
AcDbEntity
8
0
100
AcDbPolyline
90
4
70
1
43
0.0
10
307.96067682508232
20
120.22832706545091
10
321.74798536726109
20
122.65940155274286
10
319.31691087996916
20
136.44671009492174
10
305.5296023377901
20
134.01563560762969
0
LWPOLYLINE
5
105
100
AcDbEntity
8
0
100
AcDbPolyline
90
4
70
1
43
0.0
10
240.7630201295805
20
115.48755343307148
10
238.33194564228853
20
129.27486197525022
10
224.54463710010967
20
126.84378748795831
10
226.97571158740172
20
113.05647894577947
0
LWPOLYLINE
5
106
100
AcDbEntity
8
0
100
AcDbPolyline
90
4
70
1
43
0.0
10
38.649835180019245
20
118.50573682521494
10
36.218760692637304
20
104.71842828305212
10
50.006069234800108
20
102.28735379567007
10
52.437143722182114
20
116.07466233783293
0
LWPOLYLINE
5
107
100
AcDbEntity
8
0
100
AcDbPolyline
90
4
70
1
43
0.0
10
243.96226192606375
20
97.343751595768282
10
241.53118743877172
20
111.13106013794712
10
227.74387889659292
20
108.69998565065514
10
230.17495338388488
20
94.912677108476288
0
LWPOLYLINE
5
108
100
AcDbEntity
8
0
100
AcDbPolyline
90
4
70
1
43
0.0
10
215.03195393728646
20
14.738621986061025
10
212.60087944999438
20
28.525930528239844
10
198.81357090781569
20
26.094856040947839
10
201.24464539510768
20
12.307547498769058
0
LWPOLYLINE
5
109
100
AcDbEntity
8
0
100
AcDbPolyline
90
4
70
1
43
0.0
10
267.48348537243123
20
113.67629725117814
10
265.05241088513924
20
127.463605793357
10
251.2651023429604
20
125.03253130606493
10
253.6961768302524
20
111.24522276388615
0
LWPOLYLINE
5
110
100
AcDbEntity
8
0
100
AcDbPolyline
90
4
70
1
43
0.0
10
264.28424357594793
20
131.8200990884813
10
261.85316908865593
20
145.60740763066013
10
248.06586054647724
20
143.17633314336814
10
250.4969350337692
20
129.38902460118931
0
LWPOLYLINE
5
111
100
AcDbEntity
8
0
100
AcDbPolyline
90
4
70
1
43
0.0
10
143.40641103789105
20
14.946885025529397
10
145.83748552527305
20
28.734193567692252
10
159.62479406743586
20
26.303119080310211
10
157.19371958005385
20
12.51581053814739
0
LWPOLYLINE
5
112
100
AcDbEntity
8
0
100
AcDbPolyline
90
4
70
1
43
0.0
10
107.46981102617254
20
111.44805133103317
10
93.682502484009703
20
113.87912581841518
10
96.113576971391723
20
127.66643436057804
10
109.90088551355456
20
125.23535987319596
0
LWPOLYLINE
5
113
100
AcDbEntity
8
0
100
AcDbPolyline
90
4
70
1
43
0.0
10
277.14622991683876
20
145.2577070365775
10
290.93353845901748
20
147.68878152386947
10
293.36461294630942
20
133.90147298169072
10
279.57730440413064
20
131.47039849439869
0
LWPOLYLINE
5
114
100
AcDbEntity
8
0
100
AcDbPolyline
90
4
70
1
43
0.0
10
140.73979858254478
20
28.617626703031291
10
143.17087306992681
20
42.40493524519411
10
129.38356452776395
20
44.836009732576152
10
126.95249004038195
20
31.048701190413325
0
LWPOLYLINE
5
115
100
AcDbEntity
8
0
100
AcDbPolyline
90
8
70
1
43
0.0
10
1.1102230246251565e-15
20
9.999999999999984
42
0.41421356237309498
10
10
20
1.1102230246251565e-15
10
350
20
3.1086244689504383e-14
42
0.41421356237309359
10
360
20
9.9999999999999822
10
360.00000000000006
20
150.00000000000003
42
0.41421356237309609
10
350
20
159.99999999999997
10
10
20
160
42
0.41421356237309609
10
-6.6613381477509392e-15
20
150.00000000000003
0
LWPOLYLINE
5
116
100
AcDbEntity
8
0
100
AcDbPolyline
90
4
70
1
43
0.0
10
196.72979277585111
20
37.91254907710104
10
210.51710131802994
20
40.343623564393027
10
208.08602683073784
20
54.130932106571805
10
194.29871828855914
20
51.699857619279818
0
LWPOLYLINE
5
117
100
AcDbEntity
8
0
100
AcDbPolyline
90
4
70
1
43
0.0
10
213.18371377346548
20
54.01436524187762
10
226.97102231564435
20
56.445439729169628
10
224.53994782835221
20
70.232748271348413
10
210.75263928617346
20
67.801673784056405
0
CIRCLE
5
118
100
AcDbEntity
8
0
100
AcDbCircle
10
13.749999999999993
20
80
30
1.6703206661723021e-09
40
2.6000000000000001
210
0
220
0
230
1
0
LWPOLYLINE
5
119
100
AcDbEntity
8
0
100
AcDbPolyline
90
4
70
1
43
0.0
10
80.820516143206831
20
127.31673376659532
10
67.033207601044026
20
129.74780825397727
10
64.602133113661964
20
115.96049971181446
10
78.389441655824797
20
113.52942522443244
0
LWPOLYLINE
5
120
100
AcDbEntity
8
0
100
AcDbPolyline
90
4
70
1
43
0.0
10
172.99998100307531
20
93.999999999999986
10
187.00001899692469
20
93.999999999999986
10
187.00001899692469
20
108
10
172.99998100307531
20
108
0
LWPOLYLINE
5
121
100
AcDbEntity
8
0
100
AcDbPolyline
90
4
70
1
43
0.0
10
324.94722716374434
20
104.51559971543972
10
322.51615267645218
20
118.3029082576185
10
308.72884413427352
20
115.87183377032657
10
311.15991862156545
20
102.08452522814773
0
CIRCLE
5
122
100
AcDbEntity
8
0
100
AcDbCircle
10
124.959
20
13.750000000000002
30
1.6703206661723021e-09
40
2.6000000000000001
210
0
220
0
230
1
0
CIRCLE
5
123
100
AcDbEntity
8
0
100
AcDbCircle
10
235.04075000000003
20
146.24999999999994
30
1.6703206661723021e-09
40
2.6000000000000001
210
0
220
0
230
1
0
CIRCLE
5
124
100
AcDbEntity
8
0
100
AcDbCircle
10
346.25
20
146.24999999999994
30
1.6703206661723021e-09
40
2.6000000000000001
210
0
220
0
230
1
0
CIRCLE
5
125
100
AcDbEntity
8
0
100
AcDbCircle
10
124.95925
20
146.25
30
1.6703206661723021e-09
40
2.6000000000000001
210
0
220
0
230
1
0
CIRCLE
5
126
100
AcDbEntity
8
0
100
AcDbCircle
10
13.75
20
13.750000000000002
30
1.6703206661723021e-09
40
2.6000000000000001
210
0
220
0
230
1
0
CIRCLE
5
127
100
AcDbEntity
8
0
100
AcDbCircle
10
346.25
20
13.750000000000027
30
1.6703206661723021e-09
40
2.6000000000000001
210
0
220
0
230
1
0
CIRCLE
5
128
100
AcDbEntity
8
0
100
AcDbCircle
10
346.25
20
79.999999999999929
30
1.6703206661723021e-09
40
2.6000000000000001
210
0
220
0
230
1
0
CIRCLE
5
129
100
AcDbEntity
8
0
100
AcDbCircle
10
13.749999999999993
20
146.25
30
1.6703206661723021e-09
40
2.6000000000000001
210
0
220
0
230
1
0
CIRCLE
5
130
100
AcDbEntity
8
0
100
AcDbCircle
10
235.041
20
13.750000000000027
30
1.6703206661723021e-09
40
2.6000000000000001
210
0
220
0
230
1
0
ENDSEC
0
SECTION
2
OBJECTS
0
DICTIONARY
5
C
100
AcDbDictionary
3
ACAD_GROUP
350
D
3
ACAD_MLINESTYLE
350
17
0
DICTIONARY
5
D
100
AcDbDictionary
0
DICTIONARY
5
1A
330
C
100
AcDbDictionary
0
DICTIONARY
5
17
100
AcDbDictionary
0
ENDSEC
0
EOF
