0
SECTION
2
HEADER
9
$INSUNITS
70
4
9
$ACADVER
1
AC1014
9
$HANDSEED
5
FFFF
0
ENDSEC
0
SECTION
2
TABLES
0
TABLE
2
VPORT
5
8
100
AcDbSymbolTable
0
ENDTAB
0
TABLE
2
LTYPE
5
5
100
AcDbSymbolTable
0
LTYPE
5
14
100
AcDbSymbolTableRecord
100
AcDbLinetypeTableRecord
2
BYBLOCK
70
0
0
LTYPE
5
15
100
AcDbSymbolTableRecord
100
AcDbLinetypeTableRecord
2
BYLAYER
70
0
0
ENDTAB
0
TABLE
2
LAYER
5
2
100
AcDbSymbolTable
70
2
0
LAYER
5
50
100
AcDbSymbolTableRecord
100
AcDbLayerTableRecord
2
0
70
0
6
CONTINUOUS
0
ENDTAB
0
TABLE
2
STYLE
5
3
100
AcDbSymbolTable
70
1
0
STYLE
5
11
100
AcDbSymbolTableRecord
100
AcDbTextStyleTableRecord
2
STANDARD
70
0
0
ENDTAB
0
TABLE
2
VIEW
5
6
100
AcDbSymbolTable
70
0
0
ENDTAB
0
TABLE
2
UCS
5
7
100
AcDbSymbolTable
70
0
0
ENDTAB
0
TABLE
2
APPID
5
9
100
AcDbSymbolTable
70
2
0
APPID
5
12
100
AcDbSymbolTableRecord
100
AcDbRegAppTableRecord
2
ACAD
70
0
0
ENDTAB
0
TABLE
2
DIMSTYLE
5
A
100
AcDbSymbolTable
70
1
0
ENDTAB
0
TABLE
2
BLOCK_RECORD
5
1
100
AcDbSymbolTable
70
1
0
BLOCK_RECORD
5
1F
100
AcDbSymbolTableRecord
100
AcDbBlockTableRecord
2
*MODEL_SPACE
0
BLOCK_RECORD
5
1B
100
AcDbSymbolTableRecord
100
AcDbBlockTableRecord
2
*PAPER_SPACE
0
ENDTAB
0
ENDSEC
0
SECTION
2
BLOCKS
0
BLOCK
5
20
100
AcDbEntity
100
AcDbBlockBegin
2
*MODEL_SPACE
0
ENDBLK
5
21
100
AcDbEntity
100
AcDbBlockEnd
0
BLOCK
5
1C
100
AcDbEntity
100
AcDbBlockBegin
2
*PAPER_SPACE
0
ENDBLK
5
1D
100
AcDbEntity
100
AcDbBlockEnd
0
ENDSEC
0
SECTION
2
ENTITIES
0
LWPOLYLINE
5
100
100
AcDbEntity
8
0
100
AcDbPolyline
90
4
70
1
43
0.0
10
229.05480044760878
20
46.127746693016356
10
215.26749190542998
20
43.696672205724397
10
217.69856639272203
20
29.909363663545605
10
231.48587493490081
20
32.340438150837613
0
LWPOLYLINE
5
101
100
AcDbEntity
8
0
100
AcDbPolyline
90
4
70
1
43
0.0
10
234.1524873903364
20
46.01117982832217
10
247.9397959325151
20
48.442254315614178
10
245.5087214452231
20
62.229562857792956
10
231.72141290304438
20
59.798488370500962
0
LWPOLYLINE
5
102
100
AcDbEntity
8
0
100
AcDbPolyline
90
4
70
1
43
0.0
10
280.34547171332179
20
128.61390519927431
10
282.77654620061401
20
114.82659665709549
10
296.56385474279284
20
117.2576711443875
10
294.13278025550079
20
131.04497968656631
0
LWPOLYLINE
5
103
100
AcDbEntity
8
0
100
AcDbPolyline
90
4
70
1
43
0.0
10
119.6348004176523
20
112.83388870501469
10
117.20372593027037
20
99.046580162851853
10
130.99103447243317
20
96.615505675469819
10
133.4221089598152
20
110.4028142176327
0
LWPOLYLINE
5
104
100
AcDbEntity
8
0
100
AcDbPolyline
90
4
70
1
43
0.0
10
307.96067682508232
20
121.72832706545093
10
321.74798536726109
20
124.15940155274286
10
319.31691087996916
20
137.94671009492174
10
305.5296023377901
20
135.51563560762969
0
LWPOLYLINE
5
105
100
AcDbEntity
8
0
100
AcDbPolyline
90
4
70
1
43
0.0
10
240.7630201295805
20
116.98755343307148
10
238.33194564228853
20
130.77486197525022
10
224.54463710010967
20
128.34378748795831
10
226.97571158740172
20
114.55647894577949
0
LWPOLYLINE
5
106
100
AcDbEntity
8
0
100
AcDbPolyline
90
4
70
1
43
0.0
10
38.649835180019245
20
120.00573682521494
10
36.218760692637304
20
106.21842828305212
10
50.006069234800108
20
103.78735379567007
10
52.437143722182114
20
117.57466233783293
0
LWPOLYLINE
5
107
100
AcDbEntity
8
0
100
AcDbPolyline
90
4
70
1
43
0.0
10
243.96226192606375
20
98.843751595768282
10
241.53118743877172
20
112.63106013794712
10
227.74387889659292
20
110.19998565065514
10
230.17495338388488
20
96.412677108476288
0
LWPOLYLINE
5
108
100
AcDbEntity
8
0
100
AcDbPolyline
90
4
70
1
43
0.0
10
215.03195393728646
20
16.238621986061027
10
212.60087944999438
20
30.025930528239847
10
198.81357090781569
20
27.594856040947843
10
201.24464539510768
20
13.807547498769061
0
LWPOLYLINE
5
109
100
AcDbEntity
8
0
100
AcDbPolyline
90
4
70
1
43
0.0
10
267.48348537243123
20
115.17629725117814
10
265.05241088513924
20
128.963605793357
10
251.2651023429604
20
126.53253130606493
10
253.6961768302524
20
112.74522276388615
0
LWPOLYLINE
5
110
100
AcDbEntity
8
0
100
AcDbPolyline
90
4
70
1
43
0.0
10
264.28424357594793
20
133.3200990884813
10
261.85316908865593
20
147.10740763066013
10
248.06586054647724
20
144.67633314336814
10
250.4969350337692
20
130.88902460118931
0
LWPOLYLINE
5
111
100
AcDbEntity
8
0
100
AcDbPolyline
90
4
70
1
43
0.0
10
143.40641103789105
20
16.446885025529401
10
145.83748552527305
20
30.234193567692252
10
159.62479406743586
20
27.803119080310211
10
157.19371958005385
20
14.015810538147393
0
LWPOLYLINE
5
112
100
AcDbEntity
8
0
100
AcDbPolyline
90
4
70
1
43
0.0
10
107.46981102617254
20
112.94805133103317
10
93.682502484009703
20
115.37912581841518
10
96.113576971391723
20
129.16643436057802
10
109.90088551355456
20
126.73535987319596
0
LWPOLYLINE
5
113
100
AcDbEntity
8
0
100
AcDbPolyline
90
4
70
1
43
0.0
10
277.14622991683876
20
146.7577070365775
10
290.93353845901748
20
149.18878152386947
10
293.36461294630942
20
135.40147298169072
10
279.57730440413064
20
132.97039849439869
0
LWPOLYLINE
5
114
100
AcDbEntity
8
0
100
AcDbPolyline
90
4
70
1
43
0.0
10
140.73979858254478
20
30.117626703031295
10
143.17087306992681
20
43.90493524519411
10
129.38356452776395
20
46.336009732576152
10
126.95249004038195
20
32.548701190413325
0
LWPOLYLINE
5
115
100
AcDbEntity
8
0
100
AcDbPolyline
90
8
70
1
43
0.0
10
1.1102230246251565e-15
20
9.999999999999984
42
0.41421356237309498
10
10
20
1.1102230246251565e-15
10
350
20
3.1086244689504383e-14
42
0.41421356237309359
10
360
20
9.9999999999999822
10
360.00000000000006
20
150.00000000000003
42
0.41421356237309609
10
350
20
159.99999999999997
10
10
20
160
42
0.41421356237309609
10
-6.6613381477509392e-15
20
150.00000000000003
0
LWPOLYLINE
5
116
100
AcDbEntity
8
0
100
AcDbPolyline
90
4
70
1
43
0.0
10
196.72979277585111
20
39.41254907710104
10
210.51710131802994
20
41.843623564393027
10
208.08602683073784
20
55.630932106571805
10
194.29871828855914
20
53.199857619279818
0
LWPOLYLINE
5
117
100
AcDbEntity
8
0
100
AcDbPolyline
90
4
70
1
43
0.0
10
213.18371377346548
20
55.514365241877627
10
226.97102231564435
20
57.945439729169628
10
224.53994782835221
20
71.732748271348413
10
210.75263928617346
20
69.301673784056405
0
CIRCLE
5
118
100
AcDbEntity
8
0
100
AcDbCircle
10
13.749999999999993
20
80
30
1.6703206661723021e-09
40
2.6000000000000001
210
0
220
0
230
1
0
LWPOLYLINE
5
119
100
AcDbEntity
8
0
100
AcDbPolyline
90
4
70
1
43
0.0
10
80.820516143206831
20
128.81673376659532
10
67.033207601044026
20
131.24780825397727
10
64.602133113661964
20
117.46049971181448
10
78.389441655824797
20
115.02942522443246
0
LWPOLYLINE
5
120
100
AcDbEntity
8
0
100
AcDbPolyline
90
4
70
1
43
0.0
10
172.99998100307531
20
95.499999999999986
10
187.00001899692469
20
95.499999999999986
10
187.00001899692469
20
109.50000000000001
10
172.99998100307531
20
109.50000000000001
0
LWPOLYLINE
5
121
100
AcDbEntity
8
0
100
AcDbPolyline
90
4
70
1
43
0.0
10
324.94722716374434
20
106.01559971543972
10
322.51615267645218
20
119.8029082576185
10
308.72884413427352
20
117.37183377032657
10
311.15991862156545
20
103.58452522814773
0
CIRCLE
5
122
100
AcDbEntity
8
0
100
AcDbCircle
10
124.959
20
13.750000000000002
30
1.6703206661723021e-09
40
2.6000000000000001
210
0
220
0
230
1
0
CIRCLE
5
123
100
AcDbEntity
8
0
100
AcDbCircle
10
235.04075000000003
20
146.24999999999994
30
1.6703206661723021e-09
40
2.6000000000000001
210
0
220
0
230
1
0
CIRCLE
5
124
100
AcDbEntity
8
0
100
AcDbCircle
10
346.25
20
146.24999999999994
30
1.6703206661723021e-09
40
2.6000000000000001
210
0
220
0
230
1
0
CIRCLE
5
125
100
AcDbEntity
8
0
100
AcDbCircle
10
124.95925
20
146.25
30
1.6703206661723021e-09
40
2.6000000000000001
210
0
220
0
230
1
0
CIRCLE
5
126
100
AcDbEntity
8
0
100
AcDbCircle
10
13.75
20
13.750000000000002
30
1.6703206661723021e-09
40
2.6000000000000001
210
0
220
0
230
1
0
CIRCLE
5
127
100
AcDbEntity
8
0
100
AcDbCircle
10
346.25
20
13.750000000000027
30
1.6703206661723021e-09
40
2.6000000000000001
210
0
220
0
230
1
0
CIRCLE
5
128
100
AcDbEntity
8
0
100
AcDbCircle
10
346.25
20
79.999999999999929
30
1.6703206661723021e-09
40
2.6000000000000001
210
0
220
0
230
1
0
CIRCLE
5
129
100
AcDbEntity
8
0
100
AcDbCircle
10
13.749999999999993
20
146.25
30
1.6703206661723021e-09
40
2.6000000000000001
210
0
220
0
230
1
0
CIRCLE
5
130
100
AcDbEntity
8
0
100
AcDbCircle
10
235.041
20
13.750000000000027
30
1.6703206661723021e-09
40
2.6000000000000001
210
0
220
0
230
1
0
ENDSEC
0
SECTION
2
OBJECTS
0
DICTIONARY
5
C
100
AcDbDictionary
3
ACAD_GROUP
350
D
3
ACAD_MLINESTYLE
350
17
0
DICTIONARY
5
D
100
AcDbDictionary
0
DICTIONARY
5
1A
330
C
100
AcDbDictionary
0
DICTIONARY
5
17
100
AcDbDictionary
0
ENDSEC
0
EOF
