0
SECTION
2
HEADER
9
$INSUNITS
70
4
9
$ACADVER
1
AC1014
9
$HANDSEED
5
FFFF
0
ENDSEC
0
SECTION
2
TABLES
0
TABLE
2
VPORT
5
8
100
AcDbSymbolTable
0
ENDTAB
0
TABLE
2
LTYPE
5
5
100
AcDbSymbolTable
0
LTYPE
5
14
100
AcDbSymbolTableRecord
100
AcDbLinetypeTableRecord
2
BYBLOCK
70
0
0
LTYPE
5
15
100
AcDbSymbolTableRecord
100
AcDbLinetypeTableRecord
2
BYLAYER
70
0
0
ENDTAB
0
TABLE
2
LAYER
5
2
100
AcDbSymbolTable
70
2
0
LAYER
5
50
100
AcDbSymbolTableRecord
100
AcDbLayerTableRecord
2
0
70
0
6
CONTINUOUS
0
ENDTAB
0
TABLE
2
STYLE
5
3
100
AcDbSymbolTable
70
1
0
STYLE
5
11
100
AcDbSymbolTableRecord
100
AcDbTextStyleTableRecord
2
STANDARD
70
0
0
ENDTAB
0
TABLE
2
VIEW
5
6
100
AcDbSymbolTable
70
0
0
ENDTAB
0
TABLE
2
UCS
5
7
100
AcDbSymbolTable
70
0
0
ENDTAB
0
TABLE
2
APPID
5
9
100
AcDbSymbolTable
70
2
0
APPID
5
12
100
AcDbSymbolTableRecord
100
AcDbRegAppTableRecord
2
ACAD
70
0
0
ENDTAB
0
TABLE
2
DIMSTYLE
5
A
100
AcDbSymbolTable
70
1
0
ENDTAB
0
TABLE
2
BLOCK_RECORD
5
1
100
AcDbSymbolTable
70
1
0
BLOCK_RECORD
5
1F
100
AcDbSymbolTableRecord
100
AcDbBlockTableRecord
2
*MODEL_SPACE
0
BLOCK_RECORD
5
1B
100
AcDbSymbolTableRecord
100
AcDbBlockTableRecord
2
*PAPER_SPACE
0
ENDTAB
0
ENDSEC
0
SECTION
2
BLOCKS
0
BLOCK
5
20
100
AcDbEntity
100
AcDbBlockBegin
2
*MODEL_SPACE
0
ENDBLK
5
21
100
AcDbEntity
100
AcDbBlockEnd
0
BLOCK
5
1C
100
AcDbEntity
100
AcDbBlockBegin
2
*PAPER_SPACE
0
ENDBLK
5
1D
100
AcDbEntity
100
AcDbBlockEnd
0
ENDSEC
0
SECTION
2
ENTITIES
0
LWPOLYLINE
5
100
100
AcDbEntity
8
0
100
AcDbPolyline
90
8
70
1
43
0.0
10
360.00000000000006
20
150.00000000000003
10
360.00000000000006
20
9.9999999999999822
42
-0.41421356237309609
10
350
20
3.1086244689504383e-14
10
10.000000000000002
20
0
42
-0.41421356237309498
10
1.1102230246251565e-15
20
9.9999999999999822
10
-1.3322676295501878e-14
20
150.00000000000003
42
-0.41421356237309542
10
10
20
160
10
350
20
159.99999999999997
42
-0.4142135623730992
0
CIRCLE
5
101
100
AcDbEntity
8
0
100
AcDbCircle
10
13.749999999999993
20
80
30
1.6703206661723021e-09
40
2.6000000000000001
210
0
220
0
230
1
0
CIRCLE
5
102
100
AcDbEntity
8
0
100
AcDbCircle
10
235.041
20
13.750000000000027
30
1.6703206661723021e-09
40
2.6000000000000001
210
0
220
0
230
1
0
CIRCLE
5
103
100
AcDbEntity
8
0
100
AcDbCircle
10
346.25
20
79.999999999999929
30
1.6703206661723021e-09
40
2.6000000000000001
210
0
220
0
230
1
0
CIRCLE
5
104
100
AcDbEntity
8
0
100
AcDbCircle
10
13.75
20
13.750000000000002
30
1.6703206661723021e-09
40
2.6000000000000001
210
0
220
0
230
1
0
CIRCLE
5
105
100
AcDbEntity
8
0
100
AcDbCircle
10
13.749999999999993
20
146.25
30
1.6703206661723021e-09
40
2.6000000000000001
210
0
220
0
230
1
0
CIRCLE
5
106
100
AcDbEntity
8
0
100
AcDbCircle
10
124.959
20
13.750000000000002
30
1.6703206661723021e-09
40
2.6000000000000001
210
0
220
0
230
1
0
CIRCLE
5
107
100
AcDbEntity
8
0
100
AcDbCircle
10
346.25
20
146.24999999999994
30
1.6703206661723021e-09
40
2.6000000000000001
210
0
220
0
230
1
0
CIRCLE
5
108
100
AcDbEntity
8
0
100
AcDbCircle
10
346.25
20
13.750000000000027
30
1.6703206661723021e-09
40
2.6000000000000001
210
0
220
0
230
1
0
CIRCLE
5
109
100
AcDbEntity
8
0
100
AcDbCircle
10
235.04075000000003
20
146.24999999999994
30
1.6703206661723021e-09
40
2.6000000000000001
210
0
220
0
230
1
0
CIRCLE
5
110
100
AcDbEntity
8
0
100
AcDbCircle
10
124.95925
20
146.25
30
1.6703206661723021e-09
40
2.6000000000000001
210
0
220
0
230
1
0
LWPOLYLINE
5
111
100
AcDbEntity
8
0
100
AcDbPolyline
90
4
70
1
43
0.0
10
32.74339290059195
20
102.28494955702763
10
36.216356453994749
20
121.9811046172603
10
55.912511514227468
20
118.50814106385742
10
52.439547960824584
20
98.811986003624696
0
LWPOLYLINE
5
112
100
AcDbEntity
8
0
100
AcDbPolyline
90
4
70
1
43
0.0
10
80.822920381849258
20
110.05405743238708
10
61.126765321616588
20
113.52702098579002
10
64.599728875019551
20
133.22317604602262
10
84.295883935252206
20
129.75021249261982
0
LWPOLYLINE
5
113
100
AcDbEntity
8
0
100
AcDbPolyline
90
4
70
1
43
0.0
10
113.3762533055999
20
127.66883859922044
10
93.680098245367262
20
131.1418021526234
10
90.207134691964356
20
111.4456470923907
10
109.90328975219704
20
107.97268353898781
0
LWPOLYLINE
5
114
100
AcDbEntity
8
0
100
AcDbPolyline
90
4
70
1
43
0.0
10
117.2013216916278
20
114.80925649706003
10
136.89747675186058
20
111.33629294365718
10
133.42451319845762
20
91.640137883424444
10
113.72835813822503
20
95.113101436827364
0
LWPOLYLINE
5
115
100
AcDbEntity
8
0
100
AcDbPolyline
90
8
70
1
43
0.0
10
126.95008580173948
20
48.311377524621513
10
146.64624086197219
20
44.838413971218586
10
144.3888145522603
20
32.035913182067446
10
163.10016185948129
20
28.736597806334689
10
159.62719830607836
20
9.0404427461020287
10
139.93104324584567
20
12.51340629950491
10
142.18846955555753
20
25.315907088656083
10
123.4771222483366
20
28.61522246438884
0
LWPOLYLINE
5
116
100
AcDbEntity
8
0
100
AcDbPolyline
90
16
70
1
43
0.0
10
198.8111666690605
20
8.8321797067395948
10
195.33820311578631
20
28.52833476699502
10
214.04955042302888
20
31.827650142605613
10
213.00766135704657
20
37.736496660682114
10
194.29631404980395
20
34.437181285071574
10
190.82335049652968
20
54.13333634532701
10
209.5346978037723
20
57.432651720937564
10
207.27727149414397
20
70.235152510103589
10
226.9734265543994
20
73.708116063377872
10
229.23085286402767
20
60.905615274211854
10
247.94220017127026
20
64.20493064982243
10
251.41516372454458
20
44.508775589567009
10
232.70381641730197
20
41.209460213956397
10
234.96124272693032
20
28.406959424790426
10
216.24989541968759
20
25.107644049179836
10
218.50732172931595
20
12.305143260013843
0
LWPOLYLINE
5
117
100
AcDbEntity
8
0
100
AcDbPolyline
90
4
70
1
43
0.0
10
190.00001899692472
20
90.999999999999972
10
169.99998100307528
20
90.999999999999972
10
169.99998100307528
20
111.00000000000001
10
190.00001899692472
20
111.00000000000001
0
LINE
5
118
100
AcDbEntity
8
0
100
AcDbLine
10
227.74147465783773
20
91.437309316446814
30
0
11
247.43762971809321
21
94.910272869721098
31
0
0
LINE
5
119
100
AcDbEntity
8
0
100
AcDbLine
10
247.43762971809321
20
94.910272869721098
30
0
11
243.96466616481888
21
114.60642792997658
31
0
0
LINE
5
120
100
AcDbEntity
8
0
100
AcDbLine
10
224.2685111045634
20
111.13346437670232
30
0
11
227.74147465783773
21
91.437309316446814
31
0
0
LINE
5
121
100
AcDbEntity
8
0
100
AcDbLine
10
240.76542436833566
20
132.75022976727968
30
0
11
221.06926930808021
21
129.27726621400552
31
0
0
LINE
5
122
100
AcDbEntity
8
0
100
AcDbLine
10
221.06926930808021
20
129.27726621400552
30
0
11
224.54223286135456
21
109.58111115375002
31
0
0
LINE
5
123
100
AcDbEntity
8
0
100
AcDbLine
10
244.23838792161001
20
113.05407470702428
30
0
11
240.76542436833566
21
132.75022976727968
31
0
0
LINE
5
124
100
AcDbEntity
8
0
100
AcDbLine
10
264.2866478147032
20
149.08277542268959
30
0
11
244.59049275444781
21
145.60981186941535
31
0
0
LINE
5
125
100
AcDbEntity
8
0
100
AcDbLine
10
244.59049275444781
20
145.60981186941535
30
0
11
248.06345630772199
21
125.91365680915982
31
0
0
LINE
5
126
100
AcDbEntity
8
0
100
AcDbLine
10
267.75961136797736
20
129.38662036243412
30
0
11
264.2866478147032
21
149.08277542268959
31
0
0
LINE
5
127
100
AcDbEntity
8
0
100
AcDbLine
10
270.95885316446066
20
111.24281852513094
30
0
11
267.48588961118639
21
130.93897358538649
31
0
0
LINE
5
128
100
AcDbEntity
8
0
100
AcDbLine
10
247.78973455093094
20
127.46601003211211
30
0
11
251.26269810420527
21
107.7698549718567
31
0
0
LINE
5
129
100
AcDbEntity
8
0
100
AcDbLine
10
251.26269810420527
20
107.7698549718567
30
0
11
270.95885316446066
21
111.24281852513094
31
0
0
LINE
5
130
100
AcDbEntity
8
0
100
AcDbLine
10
277.14382567808349
20
127.99503070236921
30
0
11
273.67086212480945
21
147.69118576262471
31
0
0
LINE
5
131
100
AcDbEntity
8
0
100
AcDbLine
10
273.67086212480945
20
147.69118576262471
30
0
11
293.3670171850647
21
151.16414931589895
31
0
0
LINE
5
132
100
AcDbEntity
8
0
100
AcDbLine
10
293.3670171850647
20
151.16414931589895
30
0
11
296.83998073833885
21
131.46799425564353
31
0
0
LINE
5
133
100
AcDbEntity
8
0
100
AcDbLine
10
280.34306747456691
20
109.85122886506602
30
0
11
300.03922253482233
21
113.3241924183403
31
0
0
LINE
5
134
100
AcDbEntity
8
0
100
AcDbLine
10
300.03922253482233
20
113.3241924183403
30
0
11
296.56625898154795
21
133.02034747859577
31
0
0
LINE
5
135
100
AcDbEntity
8
0
100
AcDbLine
10
276.8701039212923
20
129.54738392532153
30
0
11
280.34306747456691
21
109.85122886506602
31
0
0
LINE
5
136
100
AcDbEntity
8
0
100
AcDbLine
10
321.75038960601637
20
139.92207788695123
30
0
11
302.05423454576061
21
136.44911433367687
31
0
0
LINE
5
137
100
AcDbEntity
8
0
100
AcDbLine
10
302.05423454576061
20
136.44911433367687
30
0
11
305.52719809903522
21
116.75295927342147
31
0
0
LINE
5
138
100
AcDbEntity
8
0
100
AcDbLine
10
325.22335315929058
20
120.22592282669567
30
0
11
321.75038960601637
21
139.92207788695123
31
0
0
LINE
5
139
100
AcDbEntity
8
0
100
AcDbLine
10
328.42259495577395
20
102.08212098939255
30
0
11
324.94963140249934
21
121.77827604964796
31
0
0
LINE
5
140
100
AcDbEntity
8
0
100
AcDbLine
10
305.25347634224408
20
118.30531249637376
30
0
11
308.7264398955183
21
98.609157436118252
31
0
0
LINE
5
141
100
AcDbEntity
8
0
100
AcDbLine
10
308.7264398955183
20
98.609157436118252
30
0
11
328.42259495577395
21
102.08212098939255
31
0
0
ENDSEC
0
SECTION
2
OBJECTS
0
DICTIONARY
5
C
100
AcDbDictionary
3
ACAD_GROUP
350
D
3
ACAD_MLINESTYLE
350
17
0
DICTIONARY
5
D
100
AcDbDictionary
0
DICTIONARY
5
1A
330
C
100
AcDbDictionary
0
DICTIONARY
5
17
100
AcDbDictionary
0
ENDSEC
0
EOF
