0
SECTION
2
HEADER
9
$INSUNITS
70
4
9
$ACADVER
1
AC1014
9
$HANDSEED
5
FFFF
0
ENDSEC
0
SECTION
2
TABLES
0
TABLE
2
VPORT
5
8
100
AcDbSymbolTable
0
ENDTAB
0
TABLE
2
LTYPE
5
5
100
AcDbSymbolTable
0
LTYPE
5
14
100
AcDbSymbolTableRecord
100
AcDbLinetypeTableRecord
2
BYBLOCK
70
0
0
LTYPE
5
15
100
AcDbSymbolTableRecord
100
AcDbLinetypeTableRecord
2
BYLAYER
70
0
0
ENDTAB
0
TABLE
2
LAYER
5
2
100
AcDbSymbolTable
70
2
0
LAYER
5
50
100
AcDbSymbolTableRecord
100
AcDbLayerTableRecord
2
0
70
0
6
CONTINUOUS
0
ENDTAB
0
TABLE
2
STYLE
5
3
100
AcDbSymbolTable
70
1
0
STYLE
5
11
100
AcDbSymbolTableRecord
100
AcDbTextStyleTableRecord
2
STANDARD
70
0
0
ENDTAB
0
TABLE
2
VIEW
5
6
100
AcDbSymbolTable
70
0
0
ENDTAB
0
TABLE
2
UCS
5
7
100
AcDbSymbolTable
70
0
0
ENDTAB
0
TABLE
2
APPID
5
9
100
AcDbSymbolTable
70
2
0
APPID
5
12
100
AcDbSymbolTableRecord
100
AcDbRegAppTableRecord
2
ACAD
70
0
0
ENDTAB
0
TABLE
2
DIMSTYLE
5
A
100
AcDbSymbolTable
70
1
0
ENDTAB
0
TABLE
2
BLOCK_RECORD
5
1
100
AcDbSymbolTable
70
1
0
BLOCK_RECORD
5
1F
100
AcDbSymbolTableRecord
100
AcDbBlockTableRecord
2
*MODEL_SPACE
0
BLOCK_RECORD
5
1B
100
AcDbSymbolTableRecord
100
AcDbBlockTableRecord
2
*PAPER_SPACE
0
ENDTAB
0
ENDSEC
0
SECTION
2
BLOCKS
0
BLOCK
5
20
100
AcDbEntity
100
AcDbBlockBegin
2
*MODEL_SPACE
0
ENDBLK
5
21
100
AcDbEntity
100
AcDbBlockEnd
0
BLOCK
5
1C
100
AcDbEntity
100
AcDbBlockBegin
2
*PAPER_SPACE
0
ENDBLK
5
1D
100
AcDbEntity
100
AcDbBlockEnd
0
ENDSEC
0
SECTION
2
ENTITIES
0
LWPOLYLINE
5
100
100
AcDbEntity
8
0
100
AcDbPolyline
90
8
70
1
43
0.0
10
360.00000000000006
20
150.00000000000003
10
360.00000000000006
20
9.9999999999999822
42
-0.41421356237309609
10
350
20
3.1086244689504383e-14
10
10.000000000000002
20
0
42
-0.41421356237309498
10
1.1102230246251565e-15
20
9.9999999999999822
10
-1.3322676295501878e-14
20
150.00000000000003
42
-0.41421356237309542
10
10
20
160
10
350
20
159.99999999999997
42
-0.4142135623730992
0
CIRCLE
5
101
100
AcDbEntity
8
0
100
AcDbCircle
10
13.749999999999993
20
80
30
1.6703206661723021e-09
40
2.6000000000000001
210
0
220
0
230
1
0
CIRCLE
5
102
100
AcDbEntity
8
0
100
AcDbCircle
10
235.041
20
13.750000000000027
30
1.6703206661723021e-09
40
2.6000000000000001
210
0
220
0
230
1
0
CIRCLE
5
103
100
AcDbEntity
8
0
100
AcDbCircle
10
346.25
20
79.999999999999929
30
1.6703206661723021e-09
40
2.6000000000000001
210
0
220
0
230
1
0
CIRCLE
5
104
100
AcDbEntity
8
0
100
AcDbCircle
10
13.75
20
13.750000000000002
30
1.6703206661723021e-09
40
2.6000000000000001
210
0
220
0
230
1
0
CIRCLE
5
105
100
AcDbEntity
8
0
100
AcDbCircle
10
13.749999999999993
20
146.25
30
1.6703206661723021e-09
40
2.6000000000000001
210
0
220
0
230
1
0
CIRCLE
5
106
100
AcDbEntity
8
0
100
AcDbCircle
10
124.959
20
13.750000000000002
30
1.6703206661723021e-09
40
2.6000000000000001
210
0
220
0
230
1
0
CIRCLE
5
107
100
AcDbEntity
8
0
100
AcDbCircle
10
346.25
20
146.24999999999994
30
1.6703206661723021e-09
40
2.6000000000000001
210
0
220
0
230
1
0
CIRCLE
5
108
100
AcDbEntity
8
0
100
AcDbCircle
10
346.25
20
13.750000000000027
30
1.6703206661723021e-09
40
2.6000000000000001
210
0
220
0
230
1
0
CIRCLE
5
109
100
AcDbEntity
8
0
100
AcDbCircle
10
235.04075000000003
20
146.24999999999994
30
1.6703206661723021e-09
40
2.6000000000000001
210
0
220
0
230
1
0
CIRCLE
5
110
100
AcDbEntity
8
0
100
AcDbCircle
10
124.95925
20
146.25
30
1.6703206661723021e-09
40
2.6000000000000001
210
0
220
0
230
1
0
LWPOLYLINE
5
111
100
AcDbEntity
8
0
100
AcDbPolyline
90
4
70
1
43
0.0
10
32.74339290059195
20
103.78494955702763
10
36.216356453994749
20
123.4811046172603
10
55.912511514227468
20
120.00814106385744
10
52.439547960824584
20
100.31198600362471
0
LWPOLYLINE
5
112
100
AcDbEntity
8
0
100
AcDbPolyline
90
4
70
1
43
0.0
10
80.822920381849258
20
111.55405743238708
10
61.126765321616588
20
115.02702098579002
10
64.599728875019551
20
134.72317604602262
10
84.295883935252206
20
131.25021249261982
0
LWPOLYLINE
5
113
100
AcDbEntity
8
0
100
AcDbPolyline
90
4
70
1
43
0.0
10
113.3762533055999
20
129.16883859922044
10
93.680098245367262
20
132.6418021526234
10
90.207134691964356
20
112.9456470923907
10
109.90328975219704
20
109.47268353898781
0
LWPOLYLINE
5
114
100
AcDbEntity
8
0
100
AcDbPolyline
90
4
70
1
43
0.0
10
117.2013216916278
20
116.30925649706003
10
136.89747675186058
20
112.83629294365718
10
133.42451319845762
20
93.140137883424444
10
113.72835813822503
20
96.613101436827378
0
LWPOLYLINE
5
115
100
AcDbEntity
8
0
100
AcDbPolyline
90
8
70
1
43
0.0
10
126.95008580173948
20
49.81137752462152
10
146.64624086197219
20
46.338413971218593
10
144.3888145522603
20
33.535913182067453
10
163.10016185948129
20
30.236597806334693
10
159.62719830607836
20
10.540442746102032
10
139.93104324584567
20
14.013406299504913
10
142.18846955555753
20
26.81590708865609
10
123.4771222483366
20
30.115222464388843
0
LWPOLYLINE
5
116
100
AcDbEntity
8
0
100
AcDbPolyline
90
16
70
1
43
0.0
10
198.8111666690605
20
10.332179706739598
10
195.33820311578631
20
30.028334766995023
10
214.04955042302888
20
33.32765014260562
10
213.00766135704657
20
39.236496660682121
10
194.29631404980395
20
35.937181285071574
10
190.82335049652968
20
55.63333634532701
10
209.5346978037723
20
58.932651720937564
10
207.27727149414397
20
71.735152510103589
10
226.9734265543994
20
75.208116063377886
10
229.23085286402767
20
62.405615274211854
10
247.94220017127026
20
65.70493064982243
10
251.41516372454458
20
46.008775589567009
10
232.70381641730197
20
42.709460213956405
10
234.96124272693032
20
29.906959424790429
10
216.24989541968759
20
26.607644049179839
10
218.50732172931595
20
13.805143260013846
0
LWPOLYLINE
5
117
100
AcDbEntity
8
0
100
AcDbPolyline
90
4
70
1
43
0.0
10
190.00001899692472
20
92.499999999999986
10
169.99998100307528
20
92.499999999999986
10
169.99998100307528
20
112.50000000000001
10
190.00001899692472
20
112.50000000000001
0
LINE
5
118
100
AcDbEntity
8
0
100
AcDbLine
10
227.74147465783773
20
92.937309316446814
30
0
11
247.43762971809321
21
96.410272869721098
31
0
0
LINE
5
119
100
AcDbEntity
8
0
100
AcDbLine
10
247.43762971809321
20
96.410272869721098
30
0
11
243.96466616481888
21
116.10642792997658
31
0
0
LINE
5
120
100
AcDbEntity
8
0
100
AcDbLine
10
224.2685111045634
20
112.63346437670234
30
0
11
227.74147465783773
21
92.937309316446814
31
0
0
LINE
5
121
100
AcDbEntity
8
0
100
AcDbLine
10
240.76542436833566
20
134.25022976727968
30
0
11
221.06926930808021
21
130.77726621400552
31
0
0
LINE
5
122
100
AcDbEntity
8
0
100
AcDbLine
10
221.06926930808021
20
130.77726621400552
30
0
11
224.54223286135456
21
111.08111115375002
31
0
0
LINE
5
123
100
AcDbEntity
8
0
100
AcDbLine
10
244.23838792161001
20
114.55407470702428
30
0
11
240.76542436833566
21
134.25022976727968
31
0
0
LINE
5
124
100
AcDbEntity
8
0
100
AcDbLine
10
264.2866478147032
20
150.58277542268962
30
0
11
244.59049275444781
21
147.10981186941535
31
0
0
LINE
5
125
100
AcDbEntity
8
0
100
AcDbLine
10
244.59049275444781
20
147.10981186941535
30
0
11
248.06345630772199
21
127.41365680915982
31
0
0
LINE
5
126
100
AcDbEntity
8
0
100
AcDbLine
10
267.75961136797736
20
130.88662036243412
30
0
11
264.2866478147032
21
150.58277542268962
31
0
0
LINE
5
127
100
AcDbEntity
8
0
100
AcDbLine
10
270.95885316446066
20
112.74281852513096
30
0
11
267.48588961118639
21
132.43897358538649
31
0
0
LINE
5
128
100
AcDbEntity
8
0
100
AcDbLine
10
247.78973455093094
20
128.96601003211211
30
0
11
251.26269810420527
21
109.2698549718567
31
0
0
LINE
5
129
100
AcDbEntity
8
0
100
AcDbLine
10
251.26269810420527
20
109.2698549718567
30
0
11
270.95885316446066
21
112.74281852513096
31
0
0
LINE
5
130
100
AcDbEntity
8
0
100
AcDbLine
10
277.14382567808349
20
129.49503070236921
30
0
11
273.67086212480945
21
149.19118576262471
31
0
0
LINE
5
131
100
AcDbEntity
8
0
100
AcDbLine
10
273.67086212480945
20
149.19118576262471
30
0
11
293.3670171850647
21
152.66414931589895
31
0
0
LINE
5
132
100
AcDbEntity
8
0
100
AcDbLine
10
293.3670171850647
20
152.66414931589895
30
0
11
296.83998073833885
21
132.96799425564353
31
0
0
LINE
5
133
100
AcDbEntity
8
0
100
AcDbLine
10
280.34306747456691
20
111.35122886506602
30
0
11
300.03922253482233
21
114.8241924183403
31
0
0
LINE
5
134
100
AcDbEntity
8
0
100
AcDbLine
10
300.03922253482233
20
114.8241924183403
30
0
11
296.56625898154795
21
134.52034747859577
31
0
0
LINE
5
135
100
AcDbEntity
8
0
100
AcDbLine
10
276.8701039212923
20
131.04738392532153
30
0
11
280.34306747456691
21
111.35122886506602
31
0
0
LINE
5
136
100
AcDbEntity
8
0
100
AcDbLine
10
321.75038960601637
20
141.42207788695123
30
0
11
302.05423454576061
21
137.94911433367687
31
0
0
LINE
5
137
100
AcDbEntity
8
0
100
AcDbLine
10
302.05423454576061
20
137.94911433367687
30
0
11
305.52719809903522
21
118.25295927342147
31
0
0
LINE
5
138
100
AcDbEntity
8
0
100
AcDbLine
10
325.22335315929058
20
121.72592282669568
30
0
11
321.75038960601637
21
141.42207788695123
31
0
0
LINE
5
139
100
AcDbEntity
8
0
100
AcDbLine
10
328.42259495577395
20
103.58212098939255
30
0
11
324.94963140249934
21
123.27827604964796
31
0
0
LINE
5
140
100
AcDbEntity
8
0
100
AcDbLine
10
305.25347634224408
20
119.80531249637377
30
0
11
308.7264398955183
21
100.10915743611825
31
0
0
LINE
5
141
100
AcDbEntity
8
0
100
AcDbLine
10
308.7264398955183
20
100.10915743611825
30
0
11
328.42259495577395
21
103.58212098939255
31
0
0
ENDSEC
0
SECTION
2
OBJECTS
0
DICTIONARY
5
C
100
AcDbDictionary
3
ACAD_GROUP
350
D
3
ACAD_MLINESTYLE
350
17
0
DICTIONARY
5
D
100
AcDbDictionary
0
DICTIONARY
5
1A
330
C
100
AcDbDictionary
0
DICTIONARY
5
17
100
AcDbDictionary
0
ENDSEC
0
EOF
